<svg width="65" height="160" viewBox="0 0 65 160" fill="none" xmlns="http://www.w3.org/2000/svg">
    <path d="M36.3032 159.636C36.3032 159.636 56.5168 146.152 37.91 117.948C29.2244 104.782 14.9886 90.7047 16.6173 76.7673C14.7703 78.3741 13.0925 80.1502 12.2863 81.2311C9.34201 85.1781 7.20747 89.4727 6.11381 93.9037C4.84545 99.0409 5.17664 104.449 8.11915 109.71C10.8506 114.592 15.5928 118.996 20.053 123.425C30.7312 134.027 40.1356 145.295 37.2695 157.285C37.1166 157.929 37.042 159.143 36.3032 159.636Z" fill="#A5A4A4"/>
    <path d="M49.5945 133.052C49.5945 133.052 82.0495 111.402 52.1731 66.1182C38.2285 44.9802 15.3726 22.3773 17.9894 0C15.5055 2.17276 12.33 5.43191 11.0362 7.16793C6.30852 13.5042 2.88196 20.3992 1.12592 27.5144C-0.912185 35.7632 -0.379002 44.4452 4.34685 52.8924C8.73241 60.7318 16.3462 67.8015 23.5086 74.9148C40.6524 91.9384 55.7525 110.027 51.1504 129.281C50.9011 130.313 50.7792 132.262 49.5945 133.052Z" fill="#A5A4A4"/>
</svg>
